#!OML:ASF X:\für Bonn\!DataBase\2005_08_11_Bastian_Final\c3d\Bastian.ASF
:FULLY-SPECIFIED
:DEGREES
221
root -5.65529 17.1259 -14.761 172.255 4.82776 -173.937
lowerback 5.90022 -0.817693 -2.00596
upperback 4.63675 -0.860721 0.350553
thorax 1.50833 -0.350122 1.52639
lowerneck -7.27467 -4.81658 -7.4675
upperneck -6.75452 -4.67821 15.5543
head -0.156826 -1.85041 5.83078
rclavicle -8.69683e-015 2.62396e-014
rhumerus -42.8535 29.0562 -107.587
rradius 113.791
rwrist 9.59818
rhand -21.8556 16.2846
rfingers 7.12502
rthumb 4.5482 -13.6466
lclavicle -8.69683e-015 2.62396e-014
lhumerus -30.2441 -44.2884 103.648
lradius 107.925
lwrist 34.6458
lhand -2.60399 -17.0214
lfingers 7.12502
lthumb 23.094 11.6147
rfemur -8.52711 6.80913 24.3256
rtibia 50.2635
rfoot -199.434 -182.391
rtoes 1.25828
lfemur 2.9289 0.566538 -9.66506
ltibia 39.4204
lfoot -20.4005 -5.87772
ltoes -18.8787
222
root -5.65529 17.1119 -14.7178 172.274 4.52815 -174.032
lowerback 5.87499 -0.754184 -1.96395
upperback 4.64228 -0.771544 0.275488
thorax 1.52241 -0.302775 1.42147
lowerneck -7.37934 -4.80631 -7.43079
upperneck -6.69939 -4.66947 15.4582
head -0.129589 -1.84052 5.79253
rclavicle 1.5207e-014 -1.19271e-014
rhumerus -42.5203 29.3527 -107.635
rradius 113.622
rwrist 9.88
rhand -21.9594 16.1699
rfingers 7.12502
rthumb 4.44796 -13.7633
lclavicle 1.5207e-014 -1.19271e-014
lhumerus -30.2743 -44.1853 103.58
lradius 107.906
lwrist 35.2345
lhand -2.64848 -16.9485
lfingers 7.12502
lthumb 23.0513 11.6929
rfemur -8.0195 6.9909 24.234
rtibia 50.3856
rfoot -199.749 -182.173
rtoes 0.605296
lfemur 2.5978 0.36131 -9.78741
ltibia 39.5958
lfoot -20.6954 -5.99572
ltoes -19.0195
223
root -5.65416 17.0954 -14.6742 172.258 4.23711 -174.113
lowerback 5.85555 -0.702143 -1.92244
upperback 4.68897 -0.693039 0.223182
thorax 1.57705 -0.259885 1.34071
lowerneck -7.52769 -4.78651 -7.44419
upperneck -6.64696 -4.64068 15.3756
head -0.0963828 -1.81754 5.76722
rclavicle -1.4064e-014 2.70347e-014
rhumerus -42.1816 29.7012 -107.625
rradius 113.491
rwrist 10.0719
rhand -22.0606 16.1013
rfingers 7.12502
rthumb 4.35023 -13.834
lclavicle -1.4064e-014 2.70347e-014
lhumerus -30.1893 -44.0697 103.454
lradius 107.885
lwrist 35.8056
lhand -2.72512 -16.9611
lfingers 7.12502
lthumb 22.9778 11.6894
rfemur -7.48673 7.13994 24.1558
rtibia 50.508
rfoot -200.068 -181.973
rtoes 0.174758
lfemur 2.32111 0.15676 -9.88332
ltibia 39.7544
lfoot -20.9698 -6.14894
ltoes -19.0335
224
root -5.65208 17.0777 -14.6298 172.221 3.92446 -174.248
lowerback 5.87705 -0.645286 -1.94359
upperback 4.73344 -0.610356 0.15792
thorax 1.60767 -0.215542 1.28204
lowerneck -7.62833 -4.77359 -7.45074
upperneck -6.64668 -4.61596 15.2935
head -0.0857249 -1.7992 5.74224
rclavicle 1.07841e-014 -7.15625e-015
rhumerus -41.8719 29.9859 -107.621
rradius 113.359
rwrist 10.1901
rhand -22.1039 16.1198
rfingers 7.12502
rthumb 4.30844 -13.8164
lclavicle 1.07841e-014 -7.15625e-015
lhumerus -30.0802 -43.9302 103.344
lradius 107.857
lwrist 36.2867
lhand -2.78534 -17.0013
lfingers 7.12502
lthumb 22.92 11.6564
rfemur -6.95408 7.24592 24.014
rtibia 50.6289
rfoot -200.405 -181.827
rtoes -0.507177
lfemur 2.05915 -0.0489567 -10.039
ltibia 39.8951
lfoot -21.2437 -6.29131
ltoes -19.1412
